<svg xmlns="http://www.w3.org/2000/svg" viewBox="0 0 240 124"><path d="M164.45 50.58h6.202c1.329 0 2.399 1.07 2.399 2.399v40.202a2.394 2.394 0 0 1-2.4 2.399h-6.201a2.394 2.394 0 0 1-2.399-2.399V52.979c0-1.33 1.07-2.399 2.399-2.399z" fill="#d69600"/><path d="M166.04 51.58h3.024c1.33 0 2.4 1.07 2.4 2.399v38.202a2.394 2.394 0 0 1-2.4 2.399h-3.024a2.394 2.394 0 0 1-2.399-2.399V53.979c0-1.33 1.07-2.399 2.399-2.399z" fill="#ffd543"/><path d="M166.05 51.58a2.406 2.406 0 0 0-2.406 2.406v38.187c0 1.08.71 1.979 1.687 2.282a2.42 2.42 0 0 1-.625-1.594V54.674a2.406 2.406 0 0 1 2.407-2.406h3.03c.255 0 .49.052.72.125a2.412 2.412 0 0 0-1.813-.813h-3z" fill="#ffe791"/><path d="M209.04 50.58h6.202c1.329 0 2.399 1.07 2.399 2.399v40.202a2.394 2.394 0 0 1-2.4 2.399h-6.201a2.394 2.394 0 0 1-2.399-2.399V52.979c0-1.33 1.07-2.399 2.399-2.399z" fill="#d69600"/><path d="M210.63 51.58h3.024c1.33 0 2.4 1.07 2.4 2.399v38.202a2.394 2.394 0 0 1-2.4 2.399h-3.024a2.394 2.394 0 0 1-2.399-2.399V53.979c0-1.33 1.07-2.399 2.399-2.399z" fill="#ffd543"/><path d="M210.63 51.58a2.406 2.406 0 0 0-2.406 2.406v38.187c0 1.08.71 1.979 1.687 2.282a2.42 2.42 0 0 1-.625-1.594V54.674a2.406 2.406 0 0 1 2.406-2.406h3.032c.254 0 .489.052.718.125a2.412 2.412 0 0 0-1.812-.813h-3z" fill="#ffe791"/><path d="M146.45 80.54h86.202c1.33 0 2.399 1.07 2.399 2.399v5.202a2.394 2.394 0 0 1-2.399 2.399H146.45a2.394 2.394 0 0 1-2.399-2.399v-5.202a2.394 2.394 0 0 1 2.399-2.399z" fill="#5c3566"/><path d="M146.47 81.64c-.749 0-1.313.55-1.313 1.281v5.219c0 .731.581 1.312 1.313 1.312h86.188c.732 0 1.313-.58 1.313-1.312v-5.219c0-.731-.564-1.281-1.313-1.281H146.47z" fill="#75507b"/><path d="M146.45 70.58h86.202c1.33 0 2.399 1.07 2.399 2.399v5.202a2.394 2.394 0 0 1-2.399 2.399H146.45a2.394 2.394 0 0 1-2.399-2.399v-5.202a2.394 2.394 0 0 1 2.399-2.399z" fill="#ce5c00"/><path d="M146.38 71.58c-.75 0-1.315.563-1.315 1.312v5.343c0 .749.582 1.344 1.315 1.344h86.332c.733 0 1.315-.595 1.315-1.344v-5.343c0-.75-.565-1.312-1.315-1.312H146.38z" fill="#f57900"/><path d="M146.45 60.58h86.223c1.33 0 2.399 1.07 2.399 2.399v5.202c0 1.33-1.07 2.399-2.399 2.399H146.45a2.394 2.394 0 0 1-2.399-2.399v-5.202c0-1.33 1.07-2.399 2.399-2.399z" fill="#4e9a06"/><path d="M146.39 61.58c-.75 0-1.315.56-1.315 1.306v5.318c0 .745.582 1.337 1.315 1.337h86.368c.733 0 1.315-.592 1.315-1.337v-5.318c0-.746-.565-1.306-1.315-1.306H146.39z" fill="#73d216"/><path d="M129.05 98.54h105c2 0 2 5 0 5h-105v-5z" fill="#5a5148"/><path d="M8.05 18.58h21l-1 35-10 5-10-40z" fill="#d69600"/><path d="m10.3 20.34 8.938 35.688 7.093-3.531.907-32.156H10.3z" fill="#ffd543"/><path d="M18.05 98.54h105v5h-105v-5z" fill="#5a5148"/><path d="M18.05 98.54h10l-3 22h-25l18-22z" fill="#5a5148"/><path d="m27.05 98.54-3 19-7 2 7-21h3z" fill="#8d7c6a"/><path d="M16.542 74.564c0 5.523-3.692 10-8.246 10s-8.247-4.477-8.247-10 3.692-10 8.247-10 8.246 4.477 8.246 10z" fill="#d69600"/><path d="M8.296 66.1c-3.87 0-6.979 3.77-6.979 8.462s3.11 8.463 6.979 8.463 6.978-3.771 6.978-8.463c0-4.692-3.11-8.462-6.978-8.462z" fill="#ffd543"/><path d="M2.144 75.44a7.38 7.38 0 0 1 5.799-8.712 7.53 7.53 0 0 1 1.28-.129 8.281 8.281 0 0 0-6.16 9.691 8.27 8.27 0 0 0 1.408 3.205 7.382 7.382 0 0 1-2.327-4.055z" fill="#ffe791"/><path d="M53.05 13.58s46.279-14.551 60 0c5 30 5 40 0 85h-50l-10-85z" fill="#a40000"/><path d="m13.408 24.98 2.91-.277 3.74 28.68-.831.762-5.819-29.164z" fill="#ffe791"/><path d="M13.05 58.58c1.945-2.213 4.385-4.046 7.177-5.558 2.558-1.386 5.412-2.502 8.454-3.393 2.837-.831 5.836-1.467 8.91-1.944 2.98-.462 6.031-.775 9.072-.972 3.078-.199 6.145-.279 9.12-.274 3.18.005 6.254.107 9.12.264 3.376.185 6.464.446 9.097.715 5.524.564 9.05 1.162 9.05 1.162v50H18.051s-2.351-2.879-4.814-7.311c-1.279-2.3-2.587-5.02-3.613-7.972-.937-2.698-1.638-5.592-1.864-8.538-.22-2.88.012-5.81.923-8.66.832-2.608 2.232-5.148 4.368-7.52" fill="#a40000"/><path d="M90.7 10.28c-2.97.033-5.991.24-8.953.56-3.063.331-6.064.782-8.878 1.283a161.975 161.975 0 0 0-8.782 1.824c-4.825 1.14-8.126 2.144-8.666 2.31l.903 7.62.903 7.621.904 7.621.903 7.622c.063.6-.486 1.191-1.093 1.177-2.67-.056-5.612-.013-8.63.136-2.855.141-5.779.376-8.601.711-3.02.358-5.924.83-8.508 1.422a46.582 46.582 0 0 0-6.466 2.215c-2.169.923-4.236 1.995-6.06 3.155-2.151 1.369-3.964 2.861-5.204 4.38-1.616 1.892-2.77 3.595-3.568 5.279-.941 1.986-1.385 3.946-1.502 6.16-.109 2.05.091 4.138.505 6.194.41 2.046 1.033 4.059 1.772 5.969.993 2.567 2.16 4.9 3.274 6.867 2.046 3.612 3.912 5.996 4.194 6.353l8.961-.055 8.962-.055 8.96-.055 8.961-.055 8.962-.055h47.606c.35-3.15.675-6.12.973-8.93.337-3.172.64-6.142.91-8.939.308-3.191.573-6.159.794-8.947.255-3.201.452-6.167.591-8.964.159-3.176.244-6.136.255-8.979.012-3.089-.063-6.04-.225-8.98a161.85 161.85 0 0 0-.752-8.95 244.695 244.695 0 0 0-1.168-8.906c-.41-2.774-.88-5.708-1.409-8.872-1.618-1.635-3.758-2.87-6.266-3.767-2.157-.77-4.585-1.292-7.19-1.604-2.339-.28-4.82-.392-7.371-.364" fill="#ef292a"/><path d="M86.55 17.24c-11.115.499-22.438 4.406-22.438 4.406a1.11 1.11 0 0 0-.719 1.188l2.969 26.969a1.11 1.11 0 0 0 .875.968s7.907 1.506 16.625 3.032c4.36.762 8.924 1.551 12.812 2.125 3.888.573 7.052.937 8.844.937a1.11 1.11 0 0 0 1.094-1.094c0-4.897.71-11.944.78-18.406.037-3.23-.068-6.303-.53-8.968-.462-2.666-1.26-4.947-2.782-6.47-4.132-4.132-10.864-4.986-17.53-4.687z" fill="#a40000"/><path d="M76.712 1.68C62.275 4.59 48.509 11.903 40.764 22.524c-1.036 1.42-1.08 2.939-.968 4.432.056.747.138 1.453.62 2.222.24.385.64.846 1.264 1.073.624.227 1.374.135 1.877-.104 28.506-13.553 32.772-14.03 73.065-13.937.56 0 1.21-.204 1.66-.582.449-.377.684-.845.82-1.265.274-.84.218-1.603.091-2.341-.253-1.476-.687-2.912-2.122-3.959C106.383.27 91.15-1.23 76.71 1.68z" fill="#a40000"/><path d="M113.05 98.54c0 13.807-11.193 25-25 25s-25-11.193-25-25 11.193-25 25-25 25 11.193 25 25zM60.55 106.04c0 9.665-7.835 17.5-17.5 17.5s-17.5-7.835-17.5-17.5 7.835-17.5 17.5-17.5 17.5 7.835 17.5 17.5z" fill="#d69600"/><path d="M88.05 77.24c-11.826 0-21.344 9.518-21.344 21.344s9.518 21.344 21.344 21.344 21.344-9.518 21.344-21.344S99.876 77.24 88.05 77.24zM43.05 91.24a14.769 14.769 0 0 0-14.809 14.809c0 8.21 6.599 14.809 14.809 14.809 8.21 0 14.809-6.599 14.809-14.809 0-8.21-6.599-14.809-14.809-14.809z" fill="#ffd543"/><path d="M86.675 18.87c-10.299.462-20.705 3.926-21.656 4.25l2.906 26.25c.318.061 7.728 1.478 16.25 2.969 4.351.761 8.885 1.523 12.75 2.094 3.62.534 6.547.862 8.188.906.037-5.005.682-11.735.75-17.906.035-3.177-.097-6.184-.532-8.688-.434-2.503-1.174-4.487-2.312-5.625-3.593-3.593-9.87-4.54-16.344-4.25z" fill="#739fd0"/><path d="M88.05 81.04c-9.755 0-17.5 7.745-17.5 17.5 0 9.754 7.745 17.5 17.5 17.5s17.5-7.746 17.5-17.5c0-9.755-7.745-17.5-17.5-17.5z" fill="#8d7c6a"/><path d="M89.124 83.34a13.847 13.847 0 0 1 13.883 13.884c0 .819-.1 1.623-.234 2.402-.357-8.316-7.146-14.908-15.553-14.908-2.3 0-4.455.521-6.415 1.406a13.849 13.849 0 0 1 8.318-2.783z" fill="#a8927a"/><path d="M43.05 99.74c-3.613 0-6.3 2.687-6.3 6.3s2.687 6.3 6.3 6.3 6.3-2.687 6.3-6.3-2.687-6.3-6.3-6.3z" fill="#8d7c6a"/><path d="M43.606 114.94a7.38 7.38 0 0 0 7.4-7.4 7.53 7.53 0 0 0-.125-1.28 8.281 8.281 0 0 1-8.29 7.946 8.27 8.27 0 0 1-3.418-.75 7.38 7.38 0 0 0 4.433 1.484z" fill="#ffe791"/><path d="m45.133 107.04 38.278-20.392 1.493 2.345-38.278 20.392-1.493-2.345z" fill="#312c29"/><path d="M88.616 88.94a9.204 9.204 0 0 1 9.227 9.227 9.39 9.39 0 0 1-.155 1.597 10.327 10.327 0 0 0-10.337-9.909c-1.528 0-2.961.346-4.264.934a9.204 9.204 0 0 1 5.53-1.849z" fill="#a8927a"/><path d="M90.956 84.54c1.372 2.65-1.151 6.68-5.636 9.003-4.485 2.322-9.232 2.056-10.605-.594-1.372-2.65 1.151-6.68 5.636-9.003 4.485-2.322 9.233-2.056 10.605.594zM47.089 107.54c.572 1.058-.415 2.7-2.204 3.669-1.79.969-3.705.896-4.277-.161-.573-1.058.414-2.7 2.204-3.669 1.79-.969 3.705-.896 4.277.161z" fill="#5a5148"/><path d="M42.183 23.57C56.946 3.325 95.772-5.287 116.016 9.476c1.347.982 2.275 4.967.609 4.963-40.311-.093-45.274.516-73.833 14.094-1.505.715-1.591-3.616-.609-4.963z" fill="#ef292a"/><path d="M20.05 98.54h2l-14 20-6 1 18-21zM22.05 98.54l2 .01-8 18.994-6 2 12-21zM123.05 96.54h8c1.662 0 3 1.338 3 3v3c0 1.662-1.338 3-3 3h-8c-1.662 0-3-1.338-3-3v-3c0-1.662 1.338-3 3-3z" fill="#8d7c6a"/><path d="M78.144 19.86a93.4 93.4 0 0 0-6.719 1.438l3 29.28c1.291.238 2.957.534 4.5.813l-.781-31.531zM80.362 19.48c-.422.061-.836.12-1.25.188l.844 31.906.875.156-.469-32.25z" fill="#97b8dc"/><path d="m6.57 16.21 23.085-2.34a2.394 2.394 0 0 1 2.628 2.144l.525 5.176a2.394 2.394 0 0 1-2.145 2.629L7.58 26.159a2.394 2.394 0 0 1-2.628-2.145l-.525-5.175A2.394 2.394 0 0 1 6.57 16.21z" fill="#d69600"/><path d="M6.726 17.68c-.559.057-.896.46-.842.996l.527 5.192a.912.912 0 0 0 1.027.838l23.07-2.339a.912.912 0 0 0 .837-1.027l-.526-5.192c-.054-.536-.466-.864-1.024-.807L6.725 17.68z" fill="#ffe791"/><path d="M46.445 55.09c1.037 3.354-4.622 8.083-12.639 10.562-8.018 2.48-15.358 1.77-16.395-1.584-1.037-3.354 4.621-8.083 12.639-10.562 8.018-2.48 15.358-1.77 16.395 1.584zM62.16 11.41c-1.093-1.396 3.796-4.019 10.921-5.858 7.125-1.839 13.787-2.198 14.881-.802 1.093 1.395-3.796 4.018-10.921 5.857-7.125 1.84-13.787 2.199-14.881.803z" fill="#f46e6f"/><path d="M88.05 95.34c-2.053 0-3.25 1.197-3.25 3.25s1.197 3.25 3.25 3.25 3.25-1.197 3.25-3.25-1.197-3.25-3.25-3.25zM43.05 105.04c-.58 0-1.01.43-1.01 1.01s.43 1.01 1.01 1.01c.58 0 1.01-.431 1.01-1.01s-.43-1.01-1.01-1.01z" fill="#312c29"/><path d="m25.053 22.9 4.125-.406-.719-7.031-4.125.406.719 7.031zM23.459 23.06l.969-.094-.625-7.03-.969.093.625 7.031z" fill="#ffd543"/><path d="M41.219 94.24a9.947 9.947 0 0 0-9.973 9.973c0 .588.072 1.165.169 1.725a11.16 11.16 0 0 1 11.172-10.709c1.65 0 3.2.375 4.607 1.01a9.948 9.948 0 0 0-5.975-1.999zM43.678 118.44a9.947 9.947 0 0 0 9.973-9.973c0-.588-.072-1.166-.169-1.725a11.16 11.16 0 0 1-11.172 10.709c-1.65 0-3.2-.375-4.607-1.01a9.947 9.947 0 0 0 5.975 1.999z" fill="#ffe791"/><path d="M87.778 113.44a13.847 13.847 0 0 1-13.883-13.883c0-.819.1-1.623.234-2.402.357 8.316 7.146 14.91 15.553 14.91 2.3 0 4.455-.522 6.415-1.407a13.848 13.848 0 0 1-8.318 2.783z" fill="#a8927a"/><path d="M42.066 97.34a7.38 7.38 0 0 0-7.4 7.4c0 .436.054.865.125 1.28a8.281 8.281 0 0 1 8.29-7.946 8.27 8.27 0 0 1 3.418.75 7.38 7.38 0 0 0-4.433-1.484z" fill="#ffe791"/><path d="M88.305 108.24a9.204 9.204 0 0 1-9.227-9.227c0-.545.066-1.079.155-1.597a10.327 10.327 0 0 0 10.337 9.91c1.528 0 2.961-.347 4.264-.935a9.204 9.204 0 0 1-5.53 1.849z" fill="#a8927a"/><path d="M58.288 51.9c1.946 5.16 3.19 11.262 3.487 17.839.319 7.053-.509 13.664-2.205 19.225 2.974-4.33 4.709-11.282 4.357-19.06-.336-7.421-2.527-13.908-5.639-18.003z" fill="#cc0001"/><path d="M141.45 90.54h95.202c4.399 0 4.399 8 0 8H141.45c-4.399 0-4.399-8 0-8z" fill="#a40000"/><path d="M141.05 91.54c-3 0-3 6 0 6h96c3 0 3-6 0-6h-96z" fill="#ef292a"/><path d="M184.92 106.24c0 9.665-7.835 17.5-17.5 17.5s-17.5-7.835-17.5-17.5 7.835-17.5 17.5-17.5 17.5 7.835 17.5 17.5z" fill="#d69600"/><path d="M167.42 91.44a14.769 14.769 0 0 0-14.809 14.809c0 8.21 6.599 14.809 14.809 14.809 8.21 0 14.809-6.599 14.809-14.809 0-8.21-6.599-14.809-14.809-14.809z" fill="#ffd543"/><path d="M167.42 99.94c-3.613 0-6.3 2.687-6.3 6.3s2.687 6.3 6.3 6.3 6.3-2.687 6.3-6.3-2.687-6.3-6.3-6.3z" fill="#8d7c6a"/><path d="M167.98 115.14a7.38 7.38 0 0 0 7.4-7.4c0-.436-.054-.865-.125-1.28a8.281 8.281 0 0 1-8.29 7.946 8.271 8.271 0 0 1-3.418-.749 7.382 7.382 0 0 0 4.433 1.483z" fill="#ffe791"/><path d="M167.42 105.14c-.58 0-1.01.43-1.01 1.01 0 .579.43 1.01 1.01 1.01s1.01-.431 1.01-1.01a.984.984 0 0 0-1.01-1.01z" fill="#312c29"/><path d="M165.59 94.34a9.947 9.947 0 0 0-9.973 9.973c0 .588.072 1.165.169 1.725a11.16 11.16 0 0 1 11.172-10.709c1.651 0 3.2.375 4.607 1.01a9.947 9.947 0 0 0-5.975-1.999zM168.05 118.54a9.947 9.947 0 0 0 9.973-9.973c0-.588-.072-1.165-.169-1.725a11.16 11.16 0 0 1-11.172 10.709c-1.651 0-3.2-.374-4.607-1.01a9.947 9.947 0 0 0 5.975 1.999z" fill="#ffe791"/><path d="M166.44 97.44a7.38 7.38 0 0 0-7.4 7.4c0 .436.054.865.125 1.28a8.281 8.281 0 0 1 8.29-7.946 8.27 8.27 0 0 1 3.418.75 7.38 7.38 0 0 0-4.433-1.484z" fill="#ffe791"/><path d="M229.92 106.24c0 9.665-7.835 17.5-17.5 17.5s-17.5-7.835-17.5-17.5 7.835-17.5 17.5-17.5 17.5 7.835 17.5 17.5z" fill="#d69600"/><path d="M212.42 91.44a14.769 14.769 0 0 0-14.809 14.809c0 8.21 6.599 14.809 14.809 14.809 8.21 0 14.809-6.599 14.809-14.809 0-8.21-6.599-14.809-14.809-14.809z" fill="#ffd543"/><path d="M212.42 99.94c-3.613 0-6.3 2.687-6.3 6.3s2.687 6.3 6.3 6.3 6.3-2.687 6.3-6.3-2.687-6.3-6.3-6.3z" fill="#8d7c6a"/><path d="M212.98 115.14a7.38 7.38 0 0 0 7.4-7.4c0-.436-.054-.865-.125-1.28a8.281 8.281 0 0 1-8.29 7.946 8.271 8.271 0 0 1-3.418-.749 7.382 7.382 0 0 0 4.433 1.483z" fill="#ffe791"/><path d="M212.42 105.14c-.58 0-1.01.43-1.01 1.01 0 .579.43 1.01 1.01 1.01s1.01-.431 1.01-1.01a.984.984 0 0 0-1.01-1.01z" fill="#312c29"/><path d="M210.59 94.34a9.947 9.947 0 0 0-9.973 9.973c0 .588.072 1.165.169 1.725a11.16 11.16 0 0 1 11.172-10.709c1.651 0 3.2.375 4.607 1.01a9.947 9.947 0 0 0-5.975-1.999zM213.05 118.54a9.947 9.947 0 0 0 9.973-9.973c0-.588-.072-1.165-.169-1.725a11.16 11.16 0 0 1-11.172 10.709c-1.651 0-3.2-.374-4.607-1.01a9.947 9.947 0 0 0 5.975 1.999z" fill="#ffe791"/><path d="M211.44 97.44a7.38 7.38 0 0 0-7.4 7.4c0 .436.054.865.125 1.28a8.281 8.281 0 0 1 8.29-7.946 8.27 8.27 0 0 1 3.418.75 7.38 7.38 0 0 0-4.433-1.484z" fill="#ffe791"/></svg>