<svg xmlns="http://www.w3.org/2000/svg" width="446.817" height="767.358" viewBox="0 0 500 500"><g externalResourcesRequired="false"><path d="M212.77 5c-30.79 24.506-267.46 229.9-88.188 623.22h179.25C483.102 234.9 246.436 29.54 215.644 5.03l-2.875-.031z" style="fill:#ececec;fill-rule:evenodd;stroke:#000;stroke-width:10" transform="translate(9.046 10.118)"/><path d="M220.19 259.65c-37.293 0-67.625 30.363-67.625 67.656 0 37.293 30.332 67.625 67.625 67.625s67.656-30.332 67.656-67.625-30.363-67.656-67.656-67.656zm0 8c32.965 0 59.656 26.692 59.656 59.656 0 32.965-26.691 59.625-59.656 59.625s-59.625-26.66-59.625-59.625 26.66-59.656 59.625-59.656z" style="fill:#ccc;stroke-width:8;stroke-linecap:round" transform="translate(9.046 10.118)"/><g style="fill-rule:evenodd"><g style="stroke:#000"><g style="fill:red"><path d="m102.465 176.598 43.437-79.802 60.61-68.69 17.172-13.132 64.65 67.68 50.508 81.822 4.04 17.173-241.43-1.01"/><g style="stroke-width:10"><path d="M78.221 480.658s-107.08-1.333-42.426 270.72c0 0 6.061-227.16 62.63-199.15M368.596 480.658s107.08-1.333 42.426 270.72c0 0-6.06-227.16-62.63-199.15"/></g></g><path d="m98.47 572.56 26.264 55.558 179.81-1.01 21.213-54.548H98.477Z" style="fill:#b3b3b3" transform="translate(9.046 10.118)"/></g><g style="fill:#d20000"><path d="m393.386 507.928-20.203 50.508-12.122-10.102-14.142 6.061 19.193-75.76 34.345 17.172s59.6 41.416 13.132 247.49c27.274-213.14-21.213-235.37-20.203-235.37zM32.764 748.348s-10.06-220.37 58.59-221.22c7.575-.094 7.07 24.244 7.07 24.244l-27.274 6.061-21.213 66.67-17.173 124.25z"/></g><path d="M259.87 572.57c4.053 12.21 6.448 29.248 5.281 53.531.862.304 1.776.73 2.719 1.219l36.656-.219 17.094-43.938c-.69-3.754-1.486-7.105-2.25-10.594h-59.5z" style="fill:#999" transform="translate(9.046 10.118)"/><g style="fill:#ccc"><path d="M242.896 476.038c-6.818-.505-11.125.563-11.125.563l-5.062 77.78s24.335-4.805 35.812 28.313h59.625c-19.366-90.31-59.667-105.21-79.25-106.66zM110.356 587.208l20 50 28 2-8-57z"/></g><g style="fill:none;stroke:#000;stroke-width:10"><path d="M221.816 15.118c-30.79 24.506-267.46 229.9-88.188 623.22h179.25c179.27-393.32-57.396-598.68-88.188-623.19l-2.875-.03zM102.465 178.618h237.39"/></g></g><g style="stroke:#000"><g style="stroke-linecap:round"><path d="M277.85 321.3a63.64 63.64 0 1 1-127.28 0 63.64 63.64 0 1 1 127.28 0z" style="fill:#b3b3b3;stroke-width:8" transform="translate(9.046 10.118)"/><path d="M255.63 321.3a41.416 41.416 0 1 1-82.832 0 41.416 41.416 0 1 1 82.832 0z" style="fill:#80e5ff;stroke-width:12.29300022" transform="translate(9.046 10.118)"/></g><g style="stroke-width:10"><path d="M101.5 573.57h224.25" style="fill:none" transform="translate(9.046 10.118)"/><path d="M205.12 468.52h18.183v272.74H205.12Z" style="fill:red;stroke-linecap:round" transform="translate(9.046 10.118)"/></g></g><path d="M315.65 560.44s80.812-185.87 16.162-364.66c3.03 317.19-83.843 364.66-83.843 364.66h67.68z" style="fill:#ccc;fill-rule:evenodd" transform="translate(9.046 10.118)"/><g style="stroke-linecap:round"><path transform="scale(.99545 1.00452) rotate(45 -7.615 16.006)" style="fill:#fff;stroke-width:10" d="M360.77 31.575h34.47v83.714h-34.47z"/><path d="M255.63 321.3a41.416 41.416 0 1 1-82.832 0 41.416 41.416 0 1 1 82.832 0z" style="fill:none;stroke:#000;stroke-width:12.29300022" transform="translate(9.046 10.118)"/></g><g style="fill-rule:evenodd"><path d="M306.56 153.35s-31.315-81.822-90.914-125.26c54.548 105.06 26.264 125.26 26.264 125.26z" style="fill:#d20000" transform="translate(9.046 10.118)"/><g style="fill:none;stroke:#000;stroke-width:10"><path d="M368.596 480.658s107.08-1.333 42.426 270.72c0 0-6.06-227.16-62.63-199.15M78.221 480.658s-107.08-1.333-42.426 270.72c0 0 6.061-227.16 62.63-199.15"/></g><g style="fill:#fff"><path d="M116.606 160.438s53.538-104.05 97.985-131.32c44.447-27.274-96.975 133.34-97.985 131.32zM85.073 436.918c-3.164-1.756-22.724-145.96 25.714-235.71 29.867-24.039 70.502-11.397 68.571-1.428-16.727 86.35-75.47 247.59-94.286 237.14z"/></g></g></g><g style="stroke:#000;stroke-width:5"><path style="fill:#7f7f7f" d="M202.36 464.74h21v166h-21z" transform="translate(10.416 10.118)"/><path style="fill:#fff" d="M201.469 634.74h22v110h-22z" transform="translate(10.416 10.118)"/></g><g style="stroke:#000;stroke-width:10;stroke-linecap:round;stroke-dasharray:none"><path style="fill:#7f7f7f;stroke-width:10.23236847" d="M104.735 416.74H320.42v150H104.735z" transform="translate(10.416 10.118)"/><g style="fill:none"><path d="m159.776 642.858-24 108M289.776 643.858l24 107M135.776 751.858h176"/><g stroke-linejoin="null"><path d="M159.776 641.858v-1M162.776 643.858l122 1M156.776 662.858l132 1M156.776 678.858l135 1M152.776 692.858h144M146.776 706.858l153 1M144.776 718.858l158 1M140.776 730.858l167 1M139.776 740.858h169M139.776 747.858l170-1"/></g></g></g></svg>