<svg xmlns="http://www.w3.org/2000/svg" width="297mm" height="210mm" viewBox="0 0 1052.362 744.094"><g transform="translate(-640.171 -411.38) scale(2.02219)" style="display:inline"><path d="m737.09 417.816 26.591-17.164 29.976-.725c28.23 14.667 21.155 97.68 2.66 95.73h-25.142l-32.152-15.47z" style="display:inline;fill:#af010d;fill-opacity:1;fill-rule:evenodd;stroke:#000;stroke-width:5.74357224;stroke-linecap:butt;stroke-linejoin:miter;stroke-miterlimit:4;stroke-dasharray:none;stroke-opacity:1"/><path d="M570.027 290.584c-7.363-.06-15.609-.968-24.02 1.226-7.947 2.074-19.038 11.584-24.201 17.197-14.106 15.336-22.569 33.258-26.57 47.93-25.092 1.774-55.237 3.671-77.671 11.692-40.117 15.63-58.148 52.478-58.148 79.739 0 24.742 16.39 50.41 50.305 66.002 30.717 14.123 76.68 19.374 121.875 19.373 40.386-.03 96.871-3.714 127.811-16.585l37.915-15.795 44.793-22.916c4.44-35.813 2.562-41.589-4.23-59.745l-56.414-27.196-39.579-15.817c-2.152-.995-12.126-3.025-12.126-3.025-4.916-25.12-20.514-74.529-20.514-74.529-5.676-7.655-23.025-7.418-39.226-7.551z" style="display:inline;opacity:1;fill:#1253a3;fill-opacity:1;fill-rule:nonzero;stroke:#000;stroke-width:5.74357224;stroke-linejoin:round;stroke-miterlimit:4;stroke-dasharray:none;stroke-dashoffset:0"/><path d="M764.125 401.211c12.683 35.046 11.432 73.137 7.692 93.333" style="display:inline;fill:none;fill-rule:evenodd;stroke:#000;stroke-width:5.74357224;stroke-linecap:butt;stroke-linejoin:miter;stroke-miterlimit:4;stroke-dasharray:none;stroke-opacity:1"/><path d="M360.934 438.364C490.747 461.05 617.91 462.08 743.858 446.1" style="display:inline;fill:none;fill-rule:evenodd;stroke:#000;stroke-width:.95726204px;stroke-linecap:butt;stroke-linejoin:miter;stroke-opacity:1"/><path d="M513.465 530.393c-36.088-1.3-65.026-5.571-88.298-13.03-34.646-11.106-57.19-32.067-63.038-58.611-.896-4.064-1.18-18.132-.382-18.895.26-.25 2.076-.138 4.345.266 30.425 5.418 76.576 11.007 115.22 13.954 51.989 3.964 113.114 4.489 167.59 1.44 29.238-1.636 78.346-6.022 92.277-8.241l1.904-.304-.288 6.945c-.158 3.82-.662 10.452-1.12 14.74l-.832 7.797-22.464 11.375c-19.512 9.881-25.087 12.453-42.438 19.572-21.927 8.997-27.202 10.866-37.812 13.393-29.562 7.04-82.523 11.118-124.664 9.6z" style="display:inline;opacity:1;fill:#fc0;fill-opacity:1;fill-rule:nonzero;stroke:#000;stroke-width:2.88256574;stroke-linejoin:round;stroke-miterlimit:4;stroke-dasharray:none;stroke-dashoffset:0"/><circle r="28.944" cy="442.237" cx="459.066" style="opacity:1;fill:#f60;fill-opacity:1;fill-rule:nonzero;stroke:#000;stroke-width:3.00771737;stroke-miterlimit:4;stroke-dasharray:none;stroke-dashoffset:0"/><circle r="17.494" cy="442.237" cx="459.066" style="opacity:1;fill:#59f;fill-opacity:1;fill-rule:nonzero;stroke:#000;stroke-width:3.00771737;stroke-miterlimit:4;stroke-dasharray:none;stroke-dashoffset:0"/><circle style="opacity:1;fill:#f60;fill-opacity:1;fill-rule:nonzero;stroke:#000;stroke-width:3.00771737;stroke-miterlimit:4;stroke-dasharray:none;stroke-dashoffset:0" cx="546.929" cy="442.237" r="28.944"/><circle style="opacity:1;fill:#80b3ff;fill-opacity:1;fill-rule:nonzero;stroke:#000;stroke-width:3.00771737;stroke-miterlimit:4;stroke-dasharray:none;stroke-dashoffset:0" cx="546.929" cy="442.237" r="17.494"/><circle r="28.944" cy="442.237" cx="634.792" style="opacity:1;fill:#f60;fill-opacity:1;fill-rule:nonzero;stroke:#000;stroke-width:3.00771737;stroke-miterlimit:4;stroke-dasharray:none;stroke-dashoffset:0"/><circle r="17.494" cy="442.237" cx="634.792" style="opacity:1;fill:#80b3ff;fill-opacity:1;fill-rule:nonzero;stroke:#000;stroke-width:3.00771737;stroke-miterlimit:4;stroke-dasharray:none;stroke-dashoffset:0"/><path d="M579.91 266.643s-3.394-2.162-4.101-3.914c-2.443-6.054-2.163-13.76.82-19.567.997-1.94 3.09-3.328 5.156-4.032 5.435-1.851 11.819-1.816 17.225.119 1.42.508 2.81 1.513 3.515 2.846 3.097 5.856 3.261 13.381 1.64 19.804-.472 1.875-3.163 4.862-3.163 4.862l-21.326-.474" style="display:inline;fill:#ff5b14;fill-opacity:1;fill-rule:evenodd;stroke:#000;stroke-width:2.80068541;stroke-linecap:butt;stroke-linejoin:miter;stroke-miterlimit:4;stroke-dasharray:none;stroke-opacity:1"/><path d="M580.356 289.376c0-.468-.227-22.926-.227-22.926 6.824-3.24 13.556-4.023 20.079.819l-.227 24.914z" style="display:inline;fill:#f0ca1b;fill-opacity:1;fill-rule:evenodd;stroke:#000;stroke-width:2.73679519;stroke-linecap:butt;stroke-linejoin:miter;stroke-miterlimit:4;stroke-dasharray:none;stroke-opacity:1"/><path d="M517.305 256.033s20.519-1.308 27.96-.236c6.342.914 15.905 7.346 20.208 16.731 3.637 7.933 3.156 7.229 3.524 10.133.218 1.714.084 5.601.084 5.601l-24.202 1.443s-.193-6.257-1.728-8.222c-1.188-1.52-3.411-1.827-5.335-1.926-6.921-.356-19.571-.195-19.571-.195.201-7.983-.035-15.79-.94-23.33z" style="fill:#f0ca1b;fill-opacity:1;fill-rule:evenodd;stroke:#000;stroke-width:2.79530811;stroke-linecap:butt;stroke-linejoin:miter;stroke-miterlimit:4;stroke-dasharray:none;stroke-opacity:1"/><path d="m489.168 251.04 25.128-.683s1.637.495 1.88 1.197c3.242 9.354 2.62 22.814 1.368 31.196-.095.639-.834 1.098-1.453 1.282-5.245 1.56-15.208 2.41-16.666.684-7.46-8.83-14.969-33.547-10.257-33.675z" style="fill:#ff5b14;fill-opacity:1;fill-rule:evenodd;stroke:#000;stroke-width:2.87178612;stroke-linecap:butt;stroke-linejoin:miter;stroke-miterlimit:4;stroke-dasharray:none;stroke-opacity:1"/><g style="stroke-width:4.44789982;stroke-miterlimit:4;stroke-dasharray:none" transform="matrix(.64565 0 0 .64565 253.593 130.936)"><circle r="30.236" cy="301.305" cx="491.938" style="opacity:1;fill:#f60;fill-opacity:1;fill-rule:nonzero;stroke:#000;stroke-width:4.44789982;stroke-miterlimit:4;stroke-dasharray:none;stroke-dashoffset:0"/><circle r="18.275" cy="301.305" cx="491.938" style="opacity:1;fill:#fc0;fill-opacity:1;fill-rule:nonzero;stroke:#000;stroke-width:4.44789982;stroke-miterlimit:4;stroke-dasharray:none;stroke-dashoffset:0"/></g></g></svg>