<svg xmlns="http://www.w3.org/2000/svg" viewBox="0 0 361.18 192.57"><defs><linearGradient id="f" y2="155.11" gradientUnits="userSpaceOnUse" x2="726.74" gradientTransform="translate(-3554.6 -277.33) scale(5.3359)" y1="133.2" x1="727.05"><stop style="stop-color:#fff" offset="0"/><stop style="stop-color:#fff;stop-opacity:0" offset="1"/></linearGradient><linearGradient id="e" y2="147.38" gradientUnits="userSpaceOnUse" x2="673.45" gradientTransform="translate(-3234.4 -267.99) scale(5.3359)" y1="150.71" x1="674.8"><stop style="stop-color:#d45500" offset="0"/><stop style="stop-color:#d45500;stop-opacity:0" offset="1"/></linearGradient><linearGradient id="d" y2="137.37" gradientUnits="userSpaceOnUse" x2="682.45" gradientTransform="matrix(5.3115 -.51006 .51006 5.3115 -3300.4 84.659)" y1="111.44" x1="665.8"><stop style="stop-color:#fff" offset="0"/><stop style="stop-color:#fff;stop-opacity:0" offset="1"/></linearGradient><linearGradient id="c" y2="142.73" gradientUnits="userSpaceOnUse" x2="762.16" gradientTransform="translate(-3554.6 -266.66) scale(5.3359)" y1="144" x1="749.34"><stop style="stop-color:#f60" offset="0"/><stop style="stop-color:#d45500" offset="1"/></linearGradient><linearGradient id="b" y2="909.55" gradientUnits="userSpaceOnUse" x2="707.36" gradientTransform="translate(-3554.6 -4281.2) scale(5.3359)" y1="888.34" x1="707.49"><stop style="stop-color:#ff2a2a" offset="0"/><stop style="stop-color:#d40000" offset="1"/></linearGradient><linearGradient id="a" y2="140.41" gradientUnits="userSpaceOnUse" x2="674.57" gradientTransform="translate(-3232.9 -266.82) scale(5.3359)" y1="126.3" x1="675.08"><stop style="stop-color:#00aad4" offset="0"/><stop style="stop-color:#87decd;stop-opacity:0" offset="1"/></linearGradient></defs><path style="color:#000;fill:#000" d="M695.36 156.43a1.642 1.642 0 1 1-3.283 0 1.642 1.642 0 0 1 3.283 0z" transform="translate(-3662.5 -697.18) scale(5.3359)"/><path style="stroke-linejoin:round;stroke:#000;stroke-linecap:round;stroke-width:5.3359px;fill:#333" d="M377.68 455.3c23.016 19.614 33.338 5.71 44.439-1.27l-4.246 38.295-36.878-2.971z" transform="translate(-171.3 -424.9)"/><path style="stroke:#000;stroke-width:5.3359px;fill:#f60" d="m438.39 514.96 86.579-17.779c27.305-5.607-69.045-14.613-81.575-6.523l-105.36 22.991c-14.313 34.397 80.371 5.415 100.35 1.312z" transform="translate(-171.3 -424.9)"/><path style="stroke:#000;stroke-width:1.1089px;fill:#f60" d="m741.4 892.59 5.173 12.863 7.829.292 2.215-10.402z" transform="matrix(4.8126 .08354 .28228 4.8158 -3595.7 -4281.1)"/><path style="stroke-linejoin:round;color:#000;stroke:#000;stroke-linecap:round;stroke-width:1.6197;fill:#000" d="M786.15 140.08a4.609 4.609 0 1 1-9.218 0 4.609 4.609 0 0 1 9.218 0z" transform="matrix(-3.29422 -.05718 .19331 3.298 2820.636 -270.68)"/><path style="color:#000;stroke:#000;stroke-width:1.1089;fill:#008033" d="M745.09 906.11c.035 1.29 2.535.866 5.632.782 3.096-.085 5.616.203 5.58-1.088s-2.611-3.67-5.708-3.586c-3.096.084-5.54 2.601-5.504 3.892z" transform="matrix(4.8126 .08354 .28228 4.8158 -3595.7 -4281.1)"/><path style="color:#000;stroke:#000;stroke-width:5.3359;fill:#1a1a1a" d="M344.53 447.63c-42.033 12.698-26.291 47.154 5.588 40.374 29.572-6.29 49.854-3.78 49.854-3.78s-20.919-47.023-55.442-36.594z" transform="translate(-171.3 -424.9)"/><path style="color:#000;stroke:#000;stroke-width:5.3359;fill:url(#a)" d="M363.19 445.21c-73.645 11.252-45.489 58.847 9.669 50.216 51.165-8.006 86.257-4.811 86.257-4.811S426.93 435.47 363.19 445.21z" transform="translate(-171.3 -424.9)"/><path style="stroke-linejoin:round;color:#000;stroke:#000;stroke-linecap:round;stroke-width:5.3359;fill:url(#b)" d="m202.74 501.92 11.926 9.509c42.537-7.28 92.695-55.587 133.92-64.868-18.943 2.202-53.965 44.688 10.493 34.863 38.136-5.813 60.738-29.37 60.738-29.37l52.755-8.864 13.809 115.21c-96.246 20.427-160.53-9.595-278.17-1.649-20.051-12.753-19.724-33.923-20.595-41.974.053-10.636 6.944-19.378 15.124-12.856z" transform="translate(-171.3 -424.9)"/><path style="color:#000;fill:#a00" d="m416.37 520.9-58.529 24.178 34.017 17.342c30.261 1.002 59.655-.365 88.877-6.003L416.37 520.9z" transform="translate(-171.3 -424.9)"/><path style="stroke:#000;stroke-width:5.3359px;fill:url(#c)" d="M472.56 443.19c-8.41 1.122-25.846 4.335-25.846 4.335-33.31 22.261-12.219 108.88 13.34 115.72 8.819-1.422 17.627-1.757 26.346-3.607 10.798-2.292 14.627-4.963 17.175-22.844s-4.556-66.41-9.171-78.1-13.435-16.628-21.844-15.507z" transform="translate(-171.3 -424.9)"/><path style="stroke:#000;stroke-width:2.668;fill:#803300" d="M476.68 454.99c-23.362 2.623-14.59 94.806 10.892 92.839 7.523-.58 11.511-3.957 13.516-18.212 2.005-14.255-3.586-52.944-7.217-62.263-3.632-9.319-10.573-13.257-17.19-12.363z" transform="translate(-171.3 -424.9)"/><path style="stroke:#000;stroke-width:5.3359px;fill:#fff" d="M462.96 449.15c-2.057-3.227 2.362-19.413 9.433-21.56 7.07-2.148 36.63 129.72 41.14 125.83 4.509-3.888 4.356-9.578 4.593-14.421.238-4.843-53.11-86.622-55.167-89.849z" transform="translate(-171.3 -424.9)"/><path style="color:#000;fill:#000" d="M789.18 140.21a1.705 1.705 0 1 1-3.41 0 1.705 1.705 0 0 1 3.41 0z" transform="matrix(5.3359 0 0 -5.3359 -3877.8 821.4)"/><path style="stroke:#000;stroke-width:5.3359px;fill:#f60" d="m418.68 517.04-29.831 74.137-45.142 1.684-12.773-59.955z" transform="translate(-171.3 -424.9)"/><path style="stroke-linejoin:round;color:#000;stroke:#000;stroke-linecap:round;stroke-width:1.3519;fill:#000" d="M786.15 140.08a4.609 4.609 0 1 1-9.218 0 4.609 4.609 0 0 1 9.218 0z" transform="translate(-2891.2 -381.244) scale(3.9471)"/><path style="color:#000;stroke:#000;stroke-width:5.3359;fill:#f60" d="M397.45 594.94c-.203 7.44-14.621 4.993-32.476 4.507-17.855-.487-32.385 1.17-32.182-6.27.203-7.44 15.062-21.158 32.916-20.67 17.855.486 31.944 14.993 31.741 22.433z" transform="translate(-171.3 -424.9)"/><path style="fill:#803300" d="m414.37 520.56-77.371 14.007 59.529 30.348 17.842-44.355z" transform="translate(-171.3 -424.9)"/><path style="stroke:#000;stroke-width:5.3359px;fill:#ff2a2a" d="m189.58 535.96-13.546 6.685c-9.268 4.574 14.952 8.754 17.9 8.301 2.948-.453 28.154-9.04 31.904-12.62 10.085-9.628-29.475-5.713-36.257-2.366z" transform="translate(-171.3 -424.9)"/><g style="opacity:.78601;fill:#fff"><path d="M60.088 92.079a27.78 27.78 0 0 0 3.293-2.884 18.32 18.32 0 0 0 2.68-3.605l2.188-.786 4.797 19.325-3.084 1.108-3.904-15.728c-.214.3-.493.632-.835.998-.32.359-.687.723-1.1 1.094-.392.364-.819.73-1.281 1.098-.44.36-.876.69-1.308.986l-1.446-1.606M79.177 94.619c.217-.969.557-2.123 1.018-3.464a62.752 62.752 0 0 1 1.616-4.255 75.74 75.74 0 0 1 2.106-4.462 48.161 48.161 0 0 1 2.435-4.155l2.95-1.06 3.047 12.27 2.718-.977.526 2.12-2.718.976 1.225 4.936-2.984 1.072-1.225-4.936-10.278 3.692-.436-1.757m7.903-13.257a36.582 36.582 0 0 0-1.523 2.735c-.484.963-.946 1.96-1.389 2.989a49.361 49.361 0 0 0-1.214 3.109 43.038 43.038 0 0 0-.883 2.99l7.294-2.62-2.285-9.203M104.162 91.313c.125.502.034 1.01-.271 1.525-.306.515-.801.895-1.486 1.141-.685.246-1.273.255-1.763.026s-.798-.594-.922-1.096c-.125-.502-.034-1.01.271-1.525.306-.515.801-.895 1.486-1.141.685-.247 1.273-.255 1.763-.026s.798.594.922 1.096M105.65 81.892c-.804-3.235-.748-5.968.166-8.2.937-2.24 2.61-3.792 5.019-4.658 2.409-.865 4.504-.666 6.286.597 1.805 1.255 3.108 3.5 3.911 6.735.803 3.235.736 5.972-.2 8.212-.915 2.232-2.576 3.78-4.986 4.646-2.409.866-4.515.67-6.32-.585-1.781-1.263-3.074-3.512-3.877-6.747m12.134-4.359a18.372 18.372 0 0 0-.98-2.928c-.367-.9-.816-1.64-1.345-2.22-.507-.587-1.098-.982-1.774-1.185-.681-.221-1.442-.18-2.281.12-.84.303-1.494.77-1.963 1.404-.473.616-.799 1.34-.977 2.174-.156.825-.194 1.74-.113 2.744.102.996.285 2.023.548 3.083s.579 2.04.947 2.94c.39.893.839 1.633 1.345 2.22.53.58 1.134.98 1.815 1.201.676.202 1.434.153 2.274-.149.84-.301 1.496-.76 1.97-1.375.468-.635.78-1.364.937-2.19.178-.833.216-1.748.113-2.744a19.281 19.281 0 0 0-.516-3.095M124.78 78.238c.216-.969.555-2.124 1.017-3.464a62.752 62.752 0 0 1 1.616-4.255 75.71 75.71 0 0 1 2.106-4.463 48.15 48.15 0 0 1 2.435-4.155l2.95-1.06 3.047 12.27 2.718-.976.526 2.12-2.718.976 1.225 4.936-2.984 1.072-1.225-4.936-10.278 3.692-.436-1.757m7.903-13.257a36.582 36.582 0 0 0-1.523 2.734c-.484.964-.946 1.96-1.389 2.99a49.362 49.362 0 0 0-1.214 3.109 43.01 43.01 0 0 0-.883 2.99l7.294-2.62-2.285-9.203"/></g><path style="fill:#e75d00" d="M441.22 534.57c2.24 5.583 4.417 11.475 7.17 15.508 3.824 5.6 8.047 9.118 11.84 10.338 7.63-1.188 15.124-1.75 22.343-3.002l-41.354-22.843z" transform="translate(-171.3 -424.9)"/><path style="color:#000;fill:url(#d)" d="M380.65 446.8c-5.42-.129-11.435.077-17.411.99-21.359 3.264-29.943 7.905-35.883 16.557 8.574 1.593 14.312-.45 24.985-1.475 20.031-1.924 35.838-6.029 44.294-14.15-5.453-1.224-9.811-1.775-15.986-1.922z" transform="translate(-171.3 -424.9)"/><path style="stroke:#000;stroke-width:5.3359px;fill:#f60" d="m306.51 515.57-96.775 37.554c-29.077 11.283 77.177 16.404 91.183 7.323l117.76-43.4c15.998-38.614-90.893-9.73-112.17-1.472z" transform="translate(-171.3 -424.9)"/><path style="fill:url(#e)" d="m411.37 502.05-120.1 54.414.704 4.111c4.086-.735 7.28-1.716 9.004-2.834l116.06-42.851c1.467-8.28-.352-9.838-5.669-12.84z" transform="translate(-171.3 -424.9)"/><path style="fill:url(#f)" d="M394.75 499.75c-29.362-.437-74.592 12.337-87.642 18.1l-95.826 36.917c-6.72 2.968-1.951 3.543 3.002 4.565l194.97-57.747c-3.969-1.201-8.929-1.751-14.507-1.834z" transform="translate(-171.3 -424.9)"/></svg>